<?xml version="1.0" encoding="utf-8"?>
<!-- Generator: Adobe Illustrator 26.3.1, SVG Export Plug-In . SVG Version: 6.00 Build 0)  -->
<svg version="1.1" id="Layer_1" xmlns="http://www.w3.org/2000/svg" xmlns:xlink="http://www.w3.org/1999/xlink" x="0px" y="0px"
	 viewBox="0 0 161 31.9" style="enable-background:new 0 0 161 31.9;" xml:space="preserve">
<style type="text/css">
	.st0{fill-rule:evenodd;clip-rule:evenodd;fill:#990000;}
	.st1{fill-rule:evenodd;clip-rule:evenodd;fill:#FFB300;}
	.st2{fill-rule:evenodd;clip-rule:evenodd;fill:#006D2C;}
	.st3{fill:#006D2C;}
	.st4{fill:#8F0404;}
</style>
<path class="st0" d="M10,14.3c1,0.7,2.3,1,3.6,1c1.5-0.1,1.4-0.8,1.3-1.1C14.7,14,14.3,13.9,14,14v1c-0.7,0.2-1.4,0.1-2.1-0.1v-1.8
	h3.9c0.7,0.1,1.1,0.6,1,1.2c0,0.1,0,0.1,0,0.2C16.7,15,16.1,16,14,16.1c-1.3,0-2.6-0.5-3.7-1.2C10.3,14.7,10.1,14.5,10,14.3
	C9.9,14.3,9.9,14.2,10,14.3L10,14.3z"/>
<path class="st0" d="M11.9,18.4v-2.7c0.6,0.3,1.3,0.4,2.1,0.4v1.3c0,0.1,1.4-0.1,1.2-1.3c0.2,0,1.3-0.3,1.5-0.8
	c0.8,0.4,1,1.2,0.6,1.8c-0.3,0.7-1.1,1.2-2,1.3H11.9z"/>
<path class="st1" d="M17.4,13.1h2.3V16h2v2.4h-4.4v-0.7c0.5-0.7,0.5-1.6,0-2.2v-2.4H17.4z"/>
<path class="st2" d="M9.9,14.1c0.5,0.2,1,0.5,1.5,0.6V13h-1l5.8-5c0,0,3.7-0.8,4.8,1.3c0.2,0.6,0.4,1.5-0.6,1.8
	c0.1-0.7-0.5-1.4-1.4-1.5c-0.3,0-0.7,0-1,0.2c-0.8,0.3-1.2,1-1,1.7c0.5,1,1.9,1.6,3.2,1.3c1.8-0.1,3.2-1.2,3.5-2.7
	c0-1.2-0.6-2.4-1.6-3.2c-0.2-0.2-4.9-5-4.9-5l-0.3-0.3L2.8,13v5.3h8.6v-2.9C11.4,15.5,10,14.8,9.9,14.1C9.8,14.2,9.7,14.1,9.9,14.1z
	"/>
<path class="st2" d="M22.4,13.1h8.9v5.3L17.4,29.9L12,24.6c0,0-2.7-2.3-1.1-4.6c1.3-1.5,3.8-1.8,5.6-0.8c0.8,0.5,0.9,1.4,0.4,2
	c-0.1,0.2-0.3,0.3-0.5,0.4C15.5,22,14.5,21.7,14,21c-0.1-0.2-0.2-0.5-0.2-0.7c-1.3,0.1-1.6,4,4.2,3.1l5.7-5h-1.3L22.4,13.1z"/>
<path class="st3" d="M35.4,8.3l1,1l0.2,0.1l0.2,0.3c0.1,0.1,0.3,0.2,0.5,0.3l1,0.1c0.2,0,0.4,0.1,0.6,0.2c0.2,0.1,0.4,0.4,0.4,0.6
	c0.1,0.2,0.1,0.4,0.1,0.6l-0.6,0.8c-0.1,0.2-0.2,0.3-0.4,0.5c-0.1,0-0.1,0.1-0.2,0.1c-0.1,0-0.2,0-0.2-0.1c-0.1-0.1-0.2-0.3-0.2-0.4
	c-0.1-0.2-0.1-0.4-0.1-0.6l-0.8,0.7l0.2,0.3l0.2,0.3l0.4,0.5c0.1,0.2,0.3,0.3,0.6,0.4l0.3,0.1h0.3H39c0.2-0.1,0.5-0.3,0.6-0.5
	c0.4-0.5,0.8-0.9,1.1-1.4c0.1-0.1,0.2-0.3,0.3-0.4c0.1-0.1,0.2-0.1,0.3-0.1c0.2,0,0.4,0.1,0.5,0.2c0.1,0.1,0.3,0.3,0.3,0.5v0.2
	c0,0.1,0,0.1,0,0.2v1.6c0.1,0.3,0.3,0.6,0.4,0.8c0.1,0.1,0.3,0.3,0.4,0.4c0.2,0.1,0.3,0.2,0.5,0.2H44c0.3-0.1,0.5-0.1,0.8-0.2
	c0.6-0.3,1.2-0.7,1.6-1.2c0.3-0.3,0.5-0.7,0.7-1.1c0.1-0.3,0.2-0.7,0.1-1.1c0-0.2,0-0.4,0-0.6c-0.1-0.2-0.1-0.3-0.2-0.4
	c-0.1-0.2-0.2-0.3-0.4-0.4c-0.1-0.1-0.2-0.2-0.4-0.2L46,10.5h-0.1c-0.2,0-0.5,0.1-0.7,0.2c-0.2,0.2-0.4,0.4-0.4,0.7v0.3
	c0,0.3,0.1,0.6,0.4,0.7c0.2,0.2,0.5,0.2,0.8,0.2c-0.1,0.3-0.2,0.5-0.3,0.7c-0.3,0.4-0.6,0.7-1,1c-0.2,0.2-0.4,0.3-0.7,0.3
	c-0.1,0-0.3,0-0.3-0.1c-0.1-0.1-0.1-0.2-0.1-0.3v-5h5.3l-1-1.1h-0.3V7.9l-0.1-0.3c-0.1-0.2-0.2-0.4-0.4-0.6
	c-0.1-0.2-0.3-0.3-0.5-0.4c-0.1-0.1-0.2-0.1-0.3-0.2L46,6.3c-0.2-0.1-0.5-0.1-0.7-0.1l-0.8,0.1h-0.8h-1.5l-0.3-0.1
	c-0.1,0-0.2-0.1-0.2-0.2l-0.1-0.3c0-0.2,0.1-0.3,0.2-0.5c0-0.1-0.1-0.2-0.2-0.3c-0.1,0-0.2,0-0.3,0S41.2,5,41.1,5
	C41,5.1,41,5.2,40.9,5.3c-0.1,0.2-0.1,0.3-0.1,0.5s0,0.4,0.1,0.6C40.8,6.6,41,6.8,41.2,7s0.5,0.4,0.9,0.5c0.3,0.1,0.7,0.1,1,0.1h0.2
	l0.4-0.1h0.6c0.1,0,0.3,0,0.4,0h0.6c0.2,0,0.4,0,0.6,0.1c0.2,0.1,0.2,0.2,0.2,0.4v0.1v0.1L35.4,8.3z M42,11.3l-0.1-0.2l-0.3-0.3
	l-0.2-0.1l-0.3-0.1c-0.1,0-0.2,0-0.3,0h-0.2c-0.1,0-0.3,0.1-0.4,0.4L40,11.2l0.1-0.3c0-0.2-0.1-0.4-0.1-0.7
	c-0.1-0.2-0.2-0.4-0.3-0.6c0,0-0.1-0.1-0.2-0.1l-0.3-0.1h3v2.1C42.1,11.5,42,11.4,42,11.3L42,11.3z"/>
<path class="st3" d="M52.6,9.4h-0.4H52c-0.2,0-0.4,0-0.6,0.1c-0.2,0-0.3,0.1-0.4,0.2c-0.1,0.1-0.2,0.2-0.3,0.4l-0.1,0.5V11
	c0,0.5,0.1,1.1,0.2,1.6c0.1,0.3,0.1,0.7,0.1,1v0.7v0.5v0.5c0,0.2-0.1,0.3-0.2,0.5c-0.3,0.4-0.6,0.8-1.1,1.1c-0.3,0.2-0.6,0.3-1,0.4
	c-0.1,0-0.2,0-0.3-0.1s-0.1-0.2-0.2-0.3c0-0.1,0-0.2,0.2-0.3c0.2-0.1,0.4-0.1,0.5-0.2c0.2-0.1,0.4-0.3,0.5-0.5
	c0.1-0.3,0.2-0.6,0.3-0.9c0-0.2,0-0.3,0-0.5c-0.1-0.3-0.1-0.6-0.2-0.9c-0.2-0.5-0.3-1.1-0.3-1.7c0-0.3,0-0.7,0.2-1
	c0.1-0.2,0.2-0.5,0.3-0.7l0.5-0.7h-1.9l-1.1-1.1h4.2L52.6,9.4z"/>
<path class="st3" d="M56.1,9.4h-1.5v7.8l-1-1v-5l-0.1-1c-0.1-0.2-0.2-0.3-0.4-0.5s-0.5-0.2-0.8-0.2h-0.2L51,8.4h1.6
	c0.2,0,0.4,0.1,0.5,0.2c0.2,0.1,0.4,0.3,0.5,0.5c0.1,0.3,0.3,0.5,0.4,0.8l0.2,0.7c0-0.2,0-0.3,0-0.5c-0.1-0.5-0.3-1.1-0.4-1.6
	c-0.1-0.2-0.1-0.5-0.1-0.7V7.2l0.1-0.1l0.5,0.3l0.4,1H55L56.1,9.4z"/>
<path class="st3" d="M64.8,9.4h-4v2.7l0.1,0.1c0.1,0,0.2-0.1,0.4-0.3l0.4-0.5l0.4-0.6l0.2-0.3l0.1-0.2l0.4,0.3l0.4,0.5l0.2,0.3
	c0.1,0.1,0.1,0.3,0.2,0.4c0.1,0.2,0.1,0.3,0.1,0.5s0.1,0.4,0.1,0.6c0,0.1,0,0.2,0,0.3s0,0.2-0.1,0.4c0,0.1-0.1,0.2-0.1,0.4
	c0,0.1-0.1,0.3-0.2,0.4c-0.2,0.5-0.6,0.9-1.1,1.2c-0.2,0.1-0.5,0.2-0.8,0.3s-0.7,0.1-1,0.1c-0.7,0-1.4-0.2-2-0.7
	C58,15,57.6,14.5,57.3,14l-0.2-0.4L56.8,13c-0.2-0.8-0.4-1.6-0.5-2.4l-0.1-0.8l0.5,0.7c0,0.2,0.1,0.5,0.1,0.7
	c0.1,0.2,0.2,0.5,0.3,0.7l0.2,0.6c0.1,0.2,0.3,0.5,0.4,0.7l0.2,0.2l0.3,0.3c0.2,0.3,0.5,0.5,0.9,0.7c0.3,0.2,0.6,0.3,1,0.3h0.3h0.3
	c0.2,0,0.4,0,0.6-0.1c0.1,0,0.3-0.1,0.4-0.1l0.3-0.1c0.1-0.1,0.2-0.2,0.3-0.3l0.3-0.4l0.2-0.4l0.1-0.3c0-0.3-0.1-0.6-0.2-0.8
	c-0.1,0.2-0.3,0.4-0.5,0.5c-0.1,0.1-0.3,0.3-0.5,0.3c-0.3,0.2-0.6,0.4-1,0.4c-0.5,0-0.8-0.3-1-1l-0.2-0.6c-0.1-0.2-0.2-0.4-0.4-0.6
	l0,0c0.1,0.1,0.1,0.2,0.1,0.3v0.2c0,0.1-0.1,0.2-0.1,0.2L58.7,12c-0.1,0-0.2,0.1-0.3,0.1c-0.2,0-0.3,0-0.5-0.1s-0.3-0.2-0.4-0.3
	c-0.1-0.2-0.1-0.4-0.1-0.6v-0.2c0.1-0.3,0.2-0.5,0.4-0.7s0.4-0.2,0.7-0.2h0.2c0.1,0,0.2,0,0.3,0.1l0.2,0.1c0.1,0,0.1,0.1,0.2,0.1
	l0.1,0.2c0.1,0.1,0.1,0.2,0.2,0.4V11v-0.2V9.4h-3.8l-1-1.1h8.9L64.8,9.4z"/>
<path class="st3" d="M68.2,9.4h-1.5v7.8l-1-1v-5l-0.1-1c-0.1-0.2-0.2-0.3-0.4-0.5c-0.2-0.2-0.5-0.2-0.8-0.2h-0.2L63,8.4h1.6
	c0.2,0,0.4,0.1,0.5,0.2c0.2,0.1,0.4,0.3,0.5,0.5C65.8,9.4,66,9.6,66,9.9l0.2,0.7c0-0.2,0-0.3,0-0.5c-0.1-0.5-0.3-1.1-0.4-1.6
	c-0.1-0.2-0.1-0.5-0.1-0.7V7.2l0.1-0.1l0.4,0.3l0.4,1h0.5L68.2,9.4z"/>
<path class="st3" d="M76.5,9.4H72v0.9V12c0.2,0,0.3-0.1,0.4-0.2l0.3-0.2c0.2-0.2,0.4-0.4,0.6-0.7c0.1-0.2,0.3-0.3,0.5-0.4
	c0.1,0,0.3,0.1,0.4,0.2c0.1,0.1,0.3,0.3,0.4,0.4c0.1,0.1,0.2,0.2,0.3,0.4l0.2,0.4c0.2,0.4,0.3,0.8,0.3,1.2s-0.1,0.9-0.2,1.3
	c-0.2,0.5-0.5,0.9-1,1.2c-0.6,0.3-1.3,0.5-2,0.4c-0.7,0-1.4-0.3-1.9-0.9c-0.3-0.5-0.7-1-0.9-1.5l-0.1-0.4L69,12.4
	c-0.1-0.4-0.2-0.8-0.2-1.2l-0.1-1.4V9.7V9.6l0.5,0.3c0,0.5,0.1,1,0.2,1.4l0.4,1l0.3,0.6l0.3,0.5c0.2,0.3,0.5,0.5,0.7,0.8l0.7,0.2
	l0.3,0.1h0.3c0.4,0,0.7-0.1,1.1-0.2c0.3-0.1,0.5-0.3,0.7-0.6l0.2-0.4c0.1-0.1,0.1-0.2,0.1-0.4c0-0.3-0.1-0.6-0.3-0.8
	c-0.2,0.2-0.4,0.5-0.6,0.6c-0.2,0.2-0.4,0.3-0.6,0.4c-0.3,0.2-0.6,0.3-0.9,0.3s-0.5-0.1-0.7-0.3s-0.4-0.5-0.5-0.8v-3H68l-1.1-1.1
	h8.5L76.5,9.4z"/>
<polygon class="st3" points="77.7,4.5 74.2,7.7 71.9,7.7 76.7,4.4 "/>
<path class="st3" d="M86.8,8.3h-7.5l1,1.1H85c-0.2,0.1-0.4,0.1-0.6,0.2c-0.2,0.1-0.4,0.2-0.6,0.3l-1.3,0.7c-0.3,0.1-0.6,0.3-0.9,0.5
	l-1.1,0.7l1.1,1.5c0.3,0,0.7,0.1,1,0.1c0.3,0.1,0.6,0.3,0.9,0.4c0.3,0.2,0.7,0.4,0.9,0.7c0.2,0.1,0.3,0.3,0.4,0.5l0.7,1.4l0.6,0.5
	V9.4h1.6L86.8,8.3z M84.8,13.8l-0.5-0.5c-0.5-0.4-1-0.7-1.6-1l1-0.6c0.5-0.3,0.9-0.5,1.5-0.6v3.2L84.8,13.8z"/>
<path class="st3" d="M91.9,9.4h-0.4h-0.3c-0.2,0-0.4,0-0.6,0.1c-0.2,0-0.3,0.1-0.4,0.2c-0.1,0.1-0.2,0.2-0.3,0.4l-0.1,0.5V11
	c0,0.5,0.1,1.1,0.2,1.6c0.1,0.3,0.1,0.7,0.1,1v0.7v0.5v0.5c0,0.2-0.1,0.3-0.2,0.5c-0.3,0.4-0.6,0.8-1.1,1.1c-0.3,0.2-0.6,0.3-1,0.4
	c-0.1,0-0.2,0-0.3-0.1c-0.1-0.1-0.1-0.2-0.2-0.3c0-0.1,0-0.2,0.2-0.3c0.2-0.1,0.4-0.1,0.5-0.2c0.2-0.1,0.4-0.3,0.5-0.5
	c0.1-0.3,0.2-0.6,0.3-0.9c0-0.2,0-0.3,0-0.5s-0.1-0.5-0.2-0.9c-0.2-0.5-0.3-1.1-0.3-1.7c0-0.3,0-0.7,0.2-1c0.1-0.2,0.2-0.5,0.3-0.7
	l0.5-0.7h-1.9l-1.1-1.1h4.2L91.9,9.4z"/>
<path class="st3" d="M95.4,9.4h-1.5v7.8l-1-1v-5l-0.1-1c-0.1-0.2-0.2-0.3-0.4-0.5c-0.2-0.2-0.5-0.2-0.8-0.2h-0.2l-1.1-1.1h1.6
	c0.2,0,0.4,0.1,0.5,0.2c0.2,0.1,0.4,0.3,0.5,0.5c0.2,0.2,0.3,0.5,0.4,0.8l0.2,0.7c0-0.2,0-0.3,0-0.5s-0.2-0.8-0.4-1.6
	C93,8.3,93,8,93,7.8V7.2l0.1-0.1l0.4,0.3l0.4,1h0.6L95.4,9.4z"/>
<path class="st3" d="M100.6,16.8l-1-1.2c-0.5-0.6-1-1.1-1.6-1.7L97.1,13l-1-0.8l-0.1,2l1.1,0.7l1,0.7l1.3,1l1.1,1L100.6,16.8z
	 M99.3,10.5c0-0.5-0.2-0.9-0.5-1.3c-0.3-0.4-0.8-0.6-1.3-0.6c-0.4,0-0.8,0.1-1.1,0.4c-0.2,0.2-0.3,0.3-0.4,0.5s-0.1,0.4-0.1,0.6
	c0,0.5,0.2,1,0.6,1.4c0.3,0.4,0.8,0.6,1.3,0.6c0.2,0,0.4,0,0.5-0.1c0.2-0.1,0.4-0.2,0.5-0.4C99.1,11.5,99.2,11,99.3,10.5L99.3,10.5z
	 M97.3,11.3h-0.2c-0.1,0-0.2-0.1-0.3-0.1c-0.1-0.1-0.1-0.2-0.1-0.3c0-0.3,0.1-0.5,0.3-0.7c0.1-0.1,0.3-0.2,0.5-0.2s0.3,0,0.5,0.1
	c0.1,0.1,0.2,0.2,0.2,0.3c0,0.2-0.2,0.4-0.5,0.6C97.6,11.1,97.5,11.2,97.3,11.3L97.3,11.3z"/>
<path class="st3" d="M108.1,8.3h-9.3l1.1,1.1h4.5v0.2c-0.5,0.1-1,0.3-1.4,0.5c-0.1,0.1-0.3,0.2-0.6,0.3l-0.8,0.4l-0.8,0.4l-0.8,0.6
	l1.2,1.4c0.3,0,0.7,0.1,1,0.2c0.3,0.1,0.6,0.3,0.9,0.4c0.3,0.2,0.6,0.4,0.8,0.7c0.3,0.3,0.6,0.7,0.8,1c0.1,0.1,0.1,0.3,0.2,0.4
	l0.1,0.2l0.6,0.5v-6c0.2,0,0.3,0,0.5,0.1c0.1,0,0.3,0.1,0.4,0.1c0.2,0.1,0.4,0.2,0.5,0.4l0.3,0.4c0.1,0.1,0.2,0.2,0.3,0.3l0.2,0.5
	l-0.3-0.2c-0.2-0.1-0.4-0.2-0.6-0.2h-0.3h-0.2l-0.3,0.2c-0.2,0.2-0.3,0.4-0.3,0.6c0,0.2,0.1,0.4,0.2,0.6c0.2,0.3,0.6,0.5,0.9,0.4
	c0.4,0,0.7-0.1,1-0.4c0.3-0.3,0.4-0.6,0.4-1c0-0.9-0.4-1.8-1.2-2.4c-0.5-0.4-1.1-0.7-1.7-0.7v0.1h3.7L108.1,8.3z M103.9,13.4
	l-0.6-0.6l-0.5-0.3l-0.6-0.3l0.3-0.2l0.4-0.3l0.4-0.2c0.1-0.1,0.2-0.1,0.3-0.1l0.8-0.3v3.1C104.3,13.8,104.1,13.6,103.9,13.4z"/>
<path class="st3" d="M121.4,8l-1.7-1.2c-0.3-0.2-0.6-0.4-1-0.5c-0.3-0.1-0.7-0.2-1-0.3h-0.6c-0.2,0-0.5,0-0.7,0.1
	c-0.2,0-0.5,0.1-0.7,0.3c-0.1,0.1-0.3,0.2-0.4,0.3L115,7l-0.3,0.4c-0.1,0.1-0.1,0.2-0.2,0.4l0.2,0.5h0.8l1.1,1h-1.5v7.6l-1.1-1V9.4
	h-1l-1-1.1h2l-0.4-0.5c-0.1-0.1-0.2-0.3-0.1-0.4V7c0-0.1,0.1-0.2,0.1-0.3l0.5-0.8c0.4-0.4,0.8-0.7,1.3-0.8c0.1-0.1,0.3-0.1,0.4-0.1
	c0.2-0.1,0.4-0.1,0.6-0.1c0.7,0,1.3,0.2,1.9,0.4l0.6,0.3c0.2,0.1,0.4,0.2,0.6,0.3c0.2,0.1,0.4,0.3,0.6,0.4l0.3,0.3l0.6,0.5L121.4,8z
	"/>
<path class="st3" d="M124.9,9.4h-1.5V17l-1.1-1v-4c0-0.1,0-0.2-0.1-0.3s-0.1-0.2-0.2-0.3l-0.2-0.1c-0.1-0.1-0.3-0.1-0.4-0.1
	s-0.2,0.1-0.3,0.2c-0.1,0.1-0.1,0.3-0.1,0.5l0.1,0.5l-0.8,0.3c0-0.1,0.1-0.2,0.1-0.3v-0.2V12c-0.1-0.2-0.2-0.4-0.4-0.6
	c-0.2-0.1-0.5-0.2-0.7-0.3H119c-0.3,0-0.5,0.1-0.7,0.2c-0.2,0.1-0.4,0.4-0.5,0.6v0.2c0,0.2,0.1,0.3,0.2,0.5c0.1,0.1,0.3,0.2,0.4,0.3
	l-0.1-0.3c0-0.2,0.1-0.5,0.3-0.6c0.2-0.2,0.4-0.3,0.7-0.3c0.4,0,0.8,0.3,0.9,0.7c0.1,0.2,0.2,0.4,0.2,0.7v0.1
	c-0.1,0.3-0.3,0.5-0.5,0.6s-0.5,0.2-0.8,0.2s-0.5,0-0.7-0.1c-0.2,0-0.3-0.1-0.5-0.2c-0.3-0.2-0.6-0.4-0.8-0.8
	c-0.2-0.3-0.3-0.7-0.3-1.1v-0.5c0.1-0.5,0.3-0.9,0.6-1.2c0.3-0.3,0.7-0.5,1.1-0.5c0.2,0,0.5,0,0.7,0.1s0.5,0.2,0.7,0.4l0.1,0.1l0,0
	c0,0,0.1-0.2,0.4-0.3c0.2-0.2,0.4-0.2,0.7-0.3c0.3,0,0.6,0.1,0.8,0.3l0.3,0.4l0.1,0.3v-0.1V9.4h-5.8l-1.2-1.1h8.4L124.9,9.4z"/>
<path class="st3" d="M133.1,8l-1.7-1.2c-0.3-0.2-0.6-0.4-1-0.5c-0.3-0.1-0.7-0.2-1-0.3h-0.6c-0.2,0-0.5,0-0.7,0.1
	c-0.2,0-0.5,0.1-0.7,0.3c-0.1,0.1-0.3,0.2-0.4,0.3L126.7,7l-0.3,0.4c-0.1,0.1-0.1,0.2-0.2,0.4l0.2,0.5h0.8l1.1,1.1h-1.5V17l-1.1-1
	V9.4h-1l-1.1-1.1h2l-0.4-0.5c-0.1-0.1-0.2-0.3-0.1-0.4V7c0-0.1,0.1-0.2,0.1-0.3l0.5-0.8c0.4-0.4,0.8-0.6,1.3-0.8
	c0.1-0.1,0.3-0.1,0.4-0.1c0.2-0.1,0.4-0.1,0.6-0.1c0.7,0,1.3,0.2,1.9,0.4l0.6,0.3c0.2,0.1,0.4,0.2,0.6,0.3c0.2,0.1,0.4,0.3,0.6,0.4
	l0.3,0.3l0.6,0.5L133.1,8z"/>
<path class="st3" d="M134.7,8.3H127l0.9,1l0.2,0.3c0.1,0.1,0.2,0.2,0.3,0.3l0.2,0.1c0.3,0.2,0.7,0.3,1.1,0.4
	c0.3,0.1,0.5,0.2,0.8,0.3c0.3,0.2,0.5,0.5,0.7,0.9l0.1,0.3c-0.2,0-0.3-0.1-0.5-0.1s-0.5,0-0.7,0.1c-0.2,0-0.4,0.1-0.5,0.2l-0.3,0.4
	c-0.1,0.2-0.2,0.4-0.2,0.6v0.3c0,0.2,0.1,0.3,0.2,0.5l0.2,0.2c0.1,0.1,0.3,0.2,0.4,0.2c0.2,0.1,0.4,0.1,0.6,0.1l0.5-0.1l0.5-0.2
	l0.4-0.3c0.1,0,0.1-0.1,0.1-0.2l0.3,0.1c0.2,0.1,0.3,0.2,0.5,0.3l0.3,0.3c0.1,0.1,0.2,0.2,0.2,0.3s0.1,0.2,0.1,0.3l0.5,1.2l0.6,0.6
	V9.4h1.5L134.7,8.3z M133,13.5l-0.2-0.3l-0.2-0.3c0-0.1-0.1-0.1-0.2-0.2v-0.2l-0.1-0.6l-0.1-0.5L132,11c-0.1-0.1-0.2-0.3-0.3-0.4
	l-0.4-0.5c-0.3-0.3-0.6-0.5-0.9-0.7h3v4.5L133,13.5z"/>
<path class="st3" d="M140.5,9.3c-0.5,0.2-1,0.4-1.5,0.7c-0.7,0.4-1.2,0.9-1.5,1.7l-0.2,0.8l-0.1,0.7V14c0,0.1,0.1,0.3,0.1,0.4
	c0,0.1,0.1,0.3,0.1,0.4c0,0.1,0.1,0.3,0.2,0.4c0.1,0.1,0.2,0.3,0.3,0.3l0.1,0.1l0.3,0.1h0.3c-0.1,0-0.2-0.1-0.2-0.2
	c-0.1-0.1-0.1-0.2-0.1-0.3c0-0.2,0-0.3,0.1-0.5s0.3-0.4,0.5-0.5c0.1-0.1,0.3-0.1,0.4-0.1c0.1,0,0.2,0,0.3,0.1l0.3,0.1
	c0.2,0.1,0.3,0.2,0.4,0.4c0.1,0.2,0.2,0.4,0.2,0.6c0,0.1,0,0.2,0,0.2c0,0.1-0.1,0.2-0.1,0.3c-0.1,0.2-0.2,0.3-0.3,0.4
	s-0.3,0.2-0.5,0.3c-0.2,0.1-0.4,0.1-0.6,0.1c-0.2,0-0.5,0-0.7-0.1s-0.4-0.1-0.5-0.3c-0.6-0.5-1-1.1-1.2-1.7
	c-0.2-0.5-0.3-1.1-0.3-1.7v-0.4V12c0.1-0.3,0.2-0.7,0.3-1c0.3-0.5,0.6-1,1-1.5h-2.1l-1.1-1.1h5.2L140.5,9.3z"/>
<path class="st3" d="M147,9.4h-5.3v4.9c0,0.1,0,0.2,0.1,0.3s0.2,0.1,0.3,0.1c0.3,0,0.5-0.1,0.7-0.3c0.4-0.3,0.7-0.6,1-1
	c0.2-0.2,0.3-0.5,0.3-0.7c-0.3,0-0.6-0.1-0.8-0.2c-0.2-0.2-0.4-0.4-0.4-0.7v-0.3c0.1-0.3,0.2-0.5,0.4-0.7c0.2-0.1,0.5-0.2,0.7-0.2
	h0.1l0.2,0.1c0.1,0,0.3,0.1,0.4,0.2c0.2,0.1,0.3,0.3,0.4,0.4c0.1,0.1,0.2,0.3,0.2,0.4c0,0.2,0,0.4,0,0.6c0,0.4,0,0.7-0.1,1.1
	c-0.2,0.4-0.4,0.7-0.7,1.1c-0.4,0.5-1,1-1.6,1.2c-0.2,0.1-0.5,0.2-0.7,0.2h-0.3c-0.2,0-0.4-0.1-0.5-0.2c-0.2-0.1-0.3-0.2-0.5-0.3
	c-0.2-0.2-0.3-0.5-0.4-0.8c0-0.1,0-0.1,0-0.2c0-0.1,0-0.2,0-0.3V9.4h-0.6L139,8.3h5.6V8.2V8c0-0.2-0.1-0.3-0.2-0.4
	c-0.2-0.1-0.4-0.1-0.6-0.1h-0.6c-0.1,0-0.3,0-0.4,0h-0.6l-0.4,0.1h-0.2c-0.3,0-0.7,0-1-0.1S140,7.3,139.7,7
	c-0.1-0.1-0.2-0.2-0.3-0.3c-0.1-0.1-0.1-0.2-0.2-0.3c-0.1-0.2-0.1-0.4-0.1-0.6c0-0.1,0-0.3,0.1-0.4c0-0.1,0.1-0.2,0.2-0.3
	c0-0.1,0.1-0.1,0.2-0.1c0.1,0,0.2,0,0.3,0c0.1,0.1,0.2,0.2,0.2,0.3c-0.1,0.1-0.2,0.3-0.2,0.5l0.1,0.3c0,0.1,0.1,0.1,0.2,0.2l0.3,0.1
	h1.3h0.8l0.8-0.1c0.2,0,0.5,0,0.7,0.1l0.3,0.1c0.1,0,0.2,0.1,0.3,0.2c0.2,0.1,0.4,0.2,0.5,0.4c0.2,0.2,0.3,0.4,0.4,0.6l0.1,0.3v0.4
	h0.3L147,9.4z"/>
<path class="st3" d="M155.4,9.4h-4.5v0.9V12c0.2,0,0.3-0.1,0.4-0.2l0.3-0.2c0.2-0.2,0.4-0.4,0.6-0.7c0.1-0.2,0.3-0.3,0.5-0.4
	c0.1,0,0.3,0.1,0.4,0.2c0.1,0.1,0.3,0.3,0.4,0.4c0.1,0.1,0.2,0.2,0.3,0.4l0.2,0.4c0.2,0.4,0.3,0.8,0.3,1.2s-0.1,0.9-0.2,1.3
	c-0.2,0.5-0.5,0.9-1,1.2c-0.6,0.3-1.3,0.5-2,0.4c-0.7,0-1.4-0.3-1.9-0.9c-0.3-0.5-0.7-1-0.9-1.5l-0.1-0.4l-0.3-0.8
	c-0.1-0.4-0.2-0.8-0.2-1.2l-0.1-1.4V9.6V9.5l0.5,0.3c0,0.5,0.1,1,0.2,1.4l0.4,1l0.3,0.6l0.3,0.5c0.2,0.3,0.5,0.5,0.7,0.8l0.7,0.2
	l0.3,0.1h0.3c0.4,0,0.7-0.1,1.1-0.2c0.3-0.1,0.5-0.4,0.7-0.6l0.2-0.4c0.1-0.1,0.1-0.2,0.1-0.4c0-0.3-0.1-0.6-0.3-0.8
	c-0.2,0.2-0.4,0.5-0.6,0.6c-0.2,0.2-0.4,0.3-0.6,0.4c-0.3,0.2-0.6,0.3-0.9,0.3c-0.3,0-0.5-0.1-0.7-0.3s-0.4-0.5-0.5-0.8V9.4h-2.9
	l-1.1-1.1h8.5L155.4,9.4z"/>
<path class="st4" d="M57.2,22.6v4.3l-0.6-0.6v-2.6c0-0.2-0.1-0.4-0.2-0.5c-0.2-0.3-0.3-0.4-0.5-0.4c-0.1,0-0.3,0.1-0.3,0.2
	c0.4,0.3,0.6,0.6,0.6,0.8c0,0.1,0,0.2-0.1,0.3c-0.1,0.2-0.3,0.4-0.6,0.3c-0.3,0-0.5-0.1-0.6-0.4c-0.1,0.1-0.2,0.2-0.3,0.3
	c-0.1,0.1-0.2,0.1-0.4,0.1s-0.3-0.1-0.4-0.2c-0.1-0.1-0.2-0.3-0.2-0.5s0.1-0.4,0.2-0.5c0.1-0.2,0.3-0.3,0.5-0.4
	c-0.1-0.1-0.1-0.2-0.2-0.2c-0.1-0.1-0.3-0.1-0.4-0.1h-0.5L52.8,22h1c0.2,0,0.4,0.1,0.6,0.2l0.2,0.2c0.1,0.1,0.1,0.1,0.2,0.2
	c0.2-0.3,0.4-0.5,0.7-0.6h0.2c0.2,0,0.5,0.3,0.9,0.9l0.1,0.1v-0.9v-1c0.1,0.1,0.3,0.3,0.4,0.4c0,0.1,0.1,0.1,0.1,0.2v0.1
	c0,0.1,0.1,0.1,0.2,0.1h0.4l0.6,0.6L57.2,22.6L57.2,22.6z"/>
<path class="st4" d="M61.2,21.2c-0.4-0.3-0.9-0.5-1.4-0.5c-0.3,0-0.7,0.1-0.9,0.3c-0.1,0.1-0.2,0.2-0.3,0.3
	c-0.1,0.1-0.1,0.2-0.2,0.3l0.1,0.3h0.7l0.6,0.6h-1.2v4.3L58,26.2v-3.7h-0.6L57.1,22h1.1c-0.1-0.1-0.1-0.2-0.2-0.2
	c-0.1-0.1-0.1-0.2-0.1-0.3c0-0.1,0-0.3,0.1-0.4c0.1-0.2,0.3-0.4,0.4-0.6c0.2-0.1,0.4-0.3,0.6-0.4c0.2-0.1,0.4-0.1,0.6-0.1
	c0.6,0,1.2,0.2,1.7,0.6c0.3,0.2,0.5,0.4,0.7,0.7l0.2,0.5L61.2,21.2z"/>
<path class="st4" d="M62.3,22.6v4.3L62,26.6c-0.3-0.5-0.4-0.7-0.4-0.8c-0.2-0.3-0.4-0.5-0.7-0.6c-0.3-0.2-0.7-0.3-1-0.3L59.2,24
	c0.7-0.6,1.6-1,2.5-1.3v-0.1h-2.5L58.7,22h4.1l0.6,0.6H62.3z M60.7,26.4c-0.1,0-0.3-0.1-0.4-0.2c-0.1-0.1-0.1-0.2-0.1-0.4
	c0-0.1,0-0.3,0.1-0.3c0.1-0.1,0.2-0.1,0.3-0.1s0.2,0,0.3,0.1c0.2,0.2,0.3,0.5,0.1,0.7l0,0C60.9,26.3,60.8,26.4,60.7,26.4z
	 M61.7,23.5c-0.5,0.2-0.9,0.4-1.3,0.7c0.5,0.2,1,0.6,1.3,1.1V23.5z"/>
<path class="st4" d="M64.2,22.6c-0.1,0.1-0.3,0.2-0.5,0.2s-0.4-0.1-0.5-0.2c-0.1-0.2-0.2-0.3-0.2-0.5c0-0.3,0.1-0.5,0.2-0.7
	c0.2-0.2,0.4-0.4,0.7-0.5l0.2,0.3c-0.2,0.1-0.4,0.3-0.5,0.6c0.1,0,0.1,0,0.2,0c0.1,0,0.3,0.1,0.4,0.2s0.1,0.2,0.1,0.4
	C64.4,22.4,64.3,22.5,64.2,22.6z"/>
<path class="st4" d="M69.5,22.6v4.3l-0.3-0.2c-0.2-0.6-0.4-1.1-0.8-1.5c-0.2,0.3-0.6,0.5-1,0.6c-0.7-0.1-1.3-0.5-1.6-1.1
	c-0.4-0.6-0.6-1.3-0.7-2l0.4,0.2c0.2,0.5,0.4,0.9,0.6,1.4c0.3,0.4,0.7,0.7,1.2,0.7c0.2,0,0.4-0.1,0.5-0.2s0.2-0.3,0.2-0.4
	s0-0.3-0.1-0.4c-0.1-0.2-0.1-0.3-0.2-0.3c-0.1,0.3-0.3,0.4-0.6,0.4c-0.2,0-0.4-0.1-0.5-0.2s-0.2-0.3-0.2-0.5s0.1-0.4,0.3-0.5
	c0.2-0.1,0.4-0.2,0.6-0.2c0.4,0,0.8,0.2,1,0.5c0.3,0.3,0.4,0.7,0.4,1.1v0.2l0.2,0.5v-2.3H65L64.5,22h5.3l0.6,0.6H69.5z"/>
<path class="st4" d="M70.7,22.4c0-0.4-0.1-0.8-0.1-1.3l0.3,0.3c0,0.2,0.1,0.3,0.1,0.4l0.1,0.1h0.6l0.6,0.6h-1.1V27l-0.6-0.6v-3.1
	c0-0.1,0-0.3-0.1-0.4c-0.1-0.2-0.4-0.3-0.6-0.3h-0.1l-0.6-0.5c0.3,0,0.6,0,0.8,0C70.3,22.1,70.5,22.2,70.7,22.4z"/>
<path class="st4" d="M73.2,22.8c-0.1-0.1-0.2-0.2-0.3-0.2h-1.2L71.1,22h4.3l0.6,0.6h-2.3l0,0l0.1,0.1c0.1,0,0.2,0,0.4,0.1
	c0.4,0.2,0.7,0.5,0.8,1c0,0.1,0,0.2,0,0.2c0,0.4-0.3,0.9-0.7,1l-0.4,0.2c0.1,0.1,0.2,0.1,0.4,0.2c0.3,0.2,0.5,0.4,0.7,0.6
	c0,0,0.3,0.3,0.6,0.7l0.3,0.9l-0.4-0.5c-0.4-0.4-0.9-0.8-1.5-1.1c-0.5-0.3-1-0.5-1.6-0.6L71.8,24c0.4,0.3,0.9,0.5,1.4,0.5
	c0.4,0,0.8-0.2,1.1-0.5c0.1-0.1,0.1-0.2,0.1-0.3c0-0.1-0.1-0.3-0.2-0.4s-0.3-0.1-0.5-0.1h-0.1c0,0.2-0.2,0.5-0.4,0.6
	c-0.1,0.1-0.3,0.2-0.5,0.2c-0.3,0-0.5-0.2-0.6-0.5c0-0.2,0-0.4,0.2-0.5c0.1-0.1,0.2-0.2,0.3-0.3L73.2,22.8z"/>
<path class="st4" d="M75.1,28.1l-1.6-1l0.4-0.5l1.4,1.1L75.1,28.1z"/>
<path class="st4" d="M81.1,21.2c-0.4-0.3-0.9-0.5-1.4-0.5c-0.3,0-0.7,0.1-0.9,0.3c-0.1,0.1-0.2,0.2-0.3,0.3
	c-0.1,0.1-0.1,0.2-0.2,0.3l0.1,0.3h0.7l0.6,0.6h-1.2v4.3l-0.6-0.6v-3.7h-0.6L76.9,22H78c-0.1-0.1-0.1-0.1-0.2-0.2s-0.1-0.2-0.1-0.3
	c0-0.1,0-0.3,0.1-0.4c0.1-0.2,0.3-0.4,0.4-0.6c0.2-0.1,0.4-0.3,0.6-0.4s0.4-0.1,0.6-0.1c0.6,0,1.2,0.2,1.7,0.6
	c0.3,0.2,0.5,0.4,0.7,0.7l0.2,0.5L81.1,21.2z"/>
<path class="st4" d="M79.1,22.6L78.6,22h5l0.6,0.6H79.1z M81.7,23.7c0.3-0.2,0.5-0.4,0.7-0.7l0.1-0.1c0.1,0,0.3,0.2,0.6,0.5
	c0.2,0.3,0.4,0.6,0.4,0.9c0,0.6-0.3,1.3-0.8,1.6c-0.3,0.2-0.6,0.2-0.9,0.2c-0.4,0-0.7-0.1-1-0.3c-0.5-0.4-0.9-1-1.1-1.6
	c-0.1-0.2-0.2-0.6-0.5-1.4l0.5,0.1c0.2,0.7,0.6,1.4,1.1,2c0.3,0.3,0.7,0.4,1.1,0.4c0.5,0,0.9-0.3,1-0.7c0-0.1,0-0.3,0-0.4
	c0-0.2-0.1-0.3-0.1-0.3L82.5,24c-0.2,0.2-0.4,0.3-0.6,0.4c-0.1,0-0.3,0.1-0.4,0.1c-0.3,0-0.7-0.1-0.9-0.4c-0.1-0.1-0.2-0.3-0.2-0.5
	s0.1-0.4,0.2-0.6c0.2-0.1,0.4-0.2,0.6-0.2c0.1,0,0.3,0.1,0.4,0.2s0.2,0.2,0.1,0.4C81.7,23.5,81.7,23.6,81.7,23.7z"/>
<path class="st4" d="M87.1,21.2c-0.4-0.3-0.9-0.5-1.4-0.5c-0.3,0-0.7,0.1-0.9,0.3c-0.1,0.1-0.2,0.2-0.3,0.3
	c-0.1,0.2-0.2,0.3-0.2,0.3l0.1,0.3h0.7l0.6,0.6h-1.2v4.3L84,26.3v-3.7h-0.6L82.9,22H84c-0.1-0.1-0.1-0.2-0.2-0.2
	c-0.1-0.1-0.1-0.2-0.1-0.3c0-0.1,0-0.3,0.1-0.4c0.1-0.2,0.3-0.4,0.4-0.6c0.2-0.1,0.4-0.3,0.6-0.4s0.4-0.1,0.6-0.1
	c0.6,0,1.2,0.2,1.7,0.6c0.3,0.2,0.5,0.4,0.7,0.7l0.2,0.5L87.1,21.2z"/>
<path class="st4" d="M85.1,22.6L84.5,22h4.9l0.6,0.6H85.1z M87.8,26.6c-0.3,0-0.6-0.1-0.8-0.2c-0.2-0.2-0.4-0.3-0.6-0.6
	c-0.6-0.9-1.1-1.9-1.3-2.9l0.5,0.3c0.1,0.1,0.1,0.3,0.2,0.4c0.2,0.6,0.5,1.1,0.9,1.6l0.3,0.3c0.2,0.2,0.6,0.4,0.9,0.4
	c0.2,0,0.4-0.1,0.6-0.2s0.3-0.3,0.2-0.5c0-0.1,0-0.1-0.1-0.2l-0.1-0.1C88.4,25,88.3,25,88.1,25c-0.2,0-0.3-0.1-0.4-0.2
	s-0.2-0.2-0.2-0.4c0-0.2,0.1-0.3,0.2-0.4s0.2-0.2,0.4-0.2c0.1,0,0.2,0,0.3,0.1c0.1-0.1,0.2-0.2,0.2-0.3c0-0.2-0.1-0.4-0.3-0.4h-0.1
	c-0.2,0-0.3,0-0.5,0.1c-0.1,0-0.2,0.1-0.4,0.2c-0.1,0-0.1,0.1-0.2,0.2c0.1,0.1,0.2,0.3,0.2,0.5c0,0.3-0.2,0.4-0.5,0.4
	s-0.6-0.2-0.6-0.7c0-0.1,0-0.3,0.1-0.4c0.3-0.6,1-1,1.7-0.9c0.5,0,0.9,0.3,1.1,0.8c0,0.1,0,0.2,0,0.3c0,0.3-0.1,0.7-0.3,0.9
	c0.1,0.1,0.2,0.2,0.2,0.3c0,0.2,0.1,0.3,0.1,0.5C89.1,26.2,88.7,26.6,87.8,26.6L87.8,26.6z"/>
<path class="st4" d="M92.2,22.6v0.1c0.4,0,0.7,0.2,1,0.4c0.3,0.2,0.5,0.6,0.5,0.9c0,0.1,0,0.2,0,0.4c0,0.2-0.1,0.4-0.2,0.6
	s-0.3,0.3-0.6,0.3c-0.2,0-0.3-0.1-0.4-0.2s-0.2-0.3-0.2-0.4c0-0.2,0.1-0.4,0.3-0.5c0.1,0,0.2,0,0.3,0c0.2,0,0.3,0.1,0.5,0.2
	c0,0,0,0,0,0.1s-0.1,0.1-0.2,0.1c0,0,0-0.1,0.1-0.1c0-0.2-0.1-0.5-0.3-0.6c-0.2-0.2-0.5-0.3-0.7-0.3V27L92,26.5
	c-0.1-0.2-0.1-0.3-0.2-0.5s-0.2-0.3-0.3-0.4c-0.1-0.2-0.3-0.3-0.5-0.4c-0.3-0.2-0.7-0.3-1-0.4L89.4,24c0.7-0.6,1.5-1,2.3-1.3v-0.2
	h-2.5L88.7,22H94l0.6,0.6H92.2z M90.8,23.9l-0.4,0.3c0.5,0.2,0.9,0.6,1.2,1.1v-1.7C91.4,23.6,91.1,23.7,90.8,23.9z"/>
<path class="st4" d="M96.2,20.2c0.1,0,0.2,0,0.3,0.1c-0.2,0.1-0.3,0.2-0.3,0.3c0,0.1,0.1,0.2,0.2,0.3c0.1,0.1,0.2,0.1,0.3,0.1
	c0.2,0,0.3,0,0.5,0l0.6-0.1c0.4,0,0.7,0,1.1,0.2s0.6,0.6,0.6,1h0.6l0.6,0.6H98l0.1,0.1c0.1,0.1,0.2,0.1,0.4,0.1
	c0.3,0.1,0.5,0.3,0.6,0.5c0.2,0.2,0.2,0.5,0.2,0.8c-0.1,0.5-0.4,0.9-0.9,1l-0.3,0.1c0.3,0.2,0.6,0.4,0.9,0.6l0.8,0.7l0.2,0.9
	c-0.9-1-2-1.8-3.3-2.1l-0.6-1.3c0.4,0.3,0.9,0.4,1.4,0.5c0.3,0,0.5-0.1,0.7-0.2c0.1-0.1,0.3-0.2,0.4-0.3c0,0,0-0.1,0-0.2
	s0-0.1,0-0.2c0-0.2-0.2-0.4-0.5-0.4H98c0,0.2-0.2,0.4-0.4,0.6c-0.1,0.1-0.3,0.2-0.5,0.2c-0.1,0-0.3-0.1-0.4-0.1
	c-0.1-0.1-0.2-0.2-0.2-0.4c0-0.1,0-0.3,0.1-0.4s0.2-0.2,0.3-0.3c0.2-0.1,0.3-0.2,0.5-0.2c0-0.1-0.1-0.1-0.2-0.2h-1.3L95.5,22h2.9
	h0.3c0,0,0.1,0,0.1-0.1c0.1,0,0.1-0.1,0.1-0.1s-0.1-0.1-0.2-0.1s-0.3,0-0.4,0c-0.2,0-0.5,0-0.8,0c-0.1,0-0.2,0-0.3,0
	c-0.3,0-0.6-0.1-0.9-0.2s-0.5-0.4-0.5-0.7c0-0.2,0.1-0.3,0.1-0.4C96,20.2,96.1,20.2,96.2,20.2z"/>
<path class="st4" d="M103.6,22.6V27l-0.6-0.7v-1.9c0-0.1-0.1-0.2-0.2-0.3c-0.1-0.1-0.2-0.1-0.3-0.1c-0.2,0-0.3,0.1-0.4,0.2
	c-0.5,0.7-0.7,1-0.9,1.1H101c-0.1,0-0.3,0-0.4-0.1c-0.1,0-0.4-0.3-0.7-0.9l0.4-0.4c0,0.1,0,0.3,0.1,0.4c0.1,0.2,0.2,0.3,0.2,0.3
	s0.3-0.3,0.7-0.7c-0.1-0.5-0.3-0.8-0.7-0.8c-0.2,0-0.3,0-0.5,0c-0.2-0.1-0.3-0.2-0.4-0.3l-0.1-0.1L99.3,22h4.8l0.6,0.6H103.6z
	 M103.1,22.6h-1.5c0.2,0.2,0.4,0.5,0.4,0.8l0,0c0.1-0.1,0.3-0.2,0.4-0.2c0.2,0,0.4,0.2,0.7,0.6V22.6z"/>
<path class="st4" d="M107.8,22.6v4.3l-0.6-0.6V24c0-0.1-0.1-0.2-0.1-0.3c-0.1-0.1-0.2-0.1-0.3-0.1c-0.1,0-0.2,0-0.2,0.1
	c0,0.2,0,0.3,0,0.5l-0.4,0.2c0-0.1,0-0.2,0-0.3c-0.1-0.1-0.1-0.2-0.2-0.3c-0.1-0.1-0.3-0.2-0.5-0.2s-0.3,0.1-0.5,0.2
	c-0.1,0.1-0.2,0.3-0.2,0.4c0,0.2,0.1,0.4,0.3,0.5c0-0.1,0-0.1,0-0.2s0.1-0.3,0.2-0.4s0.2-0.2,0.4-0.1c0.2,0,0.5,0.2,0.5,0.4
	c0.1,0.1,0.1,0.3,0.1,0.5c-0.1,0.3-0.4,0.5-0.7,0.4c-0.3,0-0.7-0.1-0.9-0.3c-0.2-0.2-0.4-0.6-0.3-0.9c0-0.3,0.1-0.6,0.2-0.8
	c0.2-0.3,0.4-0.4,0.7-0.4c0.3,0,0.6,0.1,0.8,0.3l0.1,0.1c0.1-0.1,0.1-0.2,0.2-0.3c0.1-0.1,0.2-0.1,0.3-0.1c0.2,0,0.3,0.1,0.4,0.2
	l0.1,0.2l0.1,0.1v-0.7h-3.1l-0.6-0.6h4.9l0.6,0.6h-1.3V22.6z"/>
<path class="st4" d="M109,22.4c0-0.4-0.1-0.8-0.1-1.3l0.3,0.3c0,0.2,0.1,0.3,0.1,0.4l0.1,0.1h0.6l0.6,0.6h-1.1V27l-0.6-0.6v-3.1
	c0-0.1,0-0.3-0.1-0.4c-0.1-0.2-0.3-0.3-0.6-0.3h-0.1l-0.5-0.5c0.3,0,0.6,0,0.8,0C108.6,22.1,108.9,22.2,109,22.4z"/>
<path class="st4" d="M113.6,21.2c-0.4-0.3-0.9-0.5-1.4-0.5c-0.3,0-0.7,0.1-0.9,0.3c-0.1,0.1-0.2,0.2-0.3,0.3
	c-0.1,0.2-0.2,0.3-0.2,0.3L111,22h0.7l0.6,0.6h-1.2v4.3l-0.6-0.6v-3.7H110l-0.6-0.6h1.1c-0.1-0.1-0.1-0.2-0.2-0.2
	c-0.1-0.1-0.1-0.2-0.1-0.3c0-0.1,0-0.3,0.1-0.4c0.1-0.2,0.3-0.4,0.4-0.6c0.2-0.1,0.4-0.3,0.6-0.4s0.4-0.1,0.6-0.1
	c0.6,0,1.2,0.2,1.7,0.6c0.3,0.2,0.5,0.4,0.7,0.7l0.2,0.5L113.6,21.2z"/>
<path class="st4" d="M111.9,23L111.9,23c-0.1-0.1-0.2-0.2-0.3-0.3l-0.1-0.2L111,22h4.6l0.6,0.6H115v4.3l-0.3-0.4
	c-0.1-0.4-0.2-0.7-0.5-1c-0.2-0.2-0.3-0.3-0.5-0.4c-0.2,0.2-0.5,0.4-0.7,0.4c-0.3,0-0.6-0.1-0.7-0.4c0-0.1,0-0.1,0-0.2
	c-0.1-0.3,0-0.6,0.2-0.7s0.4-0.2,0.6-0.2c0.1,0,0.1,0,0.2,0c0-0.3-0.2-0.5-0.4-0.7c-0.2-0.1-0.3-0.1-0.5-0.2
	C112.2,23.1,112,23.1,111.9,23z M114.4,22.6h-1.6c0.2,0.2,0.4,0.3,0.6,0.5s0.3,0.4,0.4,0.6s0.1,0.5,0.1,0.7c0.1,0.1,0.3,0.4,0.5,0.6
	V22.6z"/>
<path class="st4" d="M120.8,22.6V27l-0.4-0.5c-0.3-0.9-1.1-1.6-2.1-1.6l-0.6-0.8c0.3-0.3,0.7-0.5,1.1-0.7c0.5-0.2,0.9-0.4,1.4-0.6
	v-0.1h-2.6l-0.6-0.6h4.3l0.6,0.6L120.8,22.6L120.8,22.6z M120.3,23.5c-0.5,0.2-0.9,0.4-1.3,0.7c0.5,0.2,1,0.6,1.3,1.1V23.5z"/>
<path class="st4" d="M123.2,22.5c-0.2,0-0.3,0-0.4,0.1s-0.2,0.2-0.2,0.4c0,0.4,0,0.8,0.1,1.2c0.1,0.4,0.1,0.8,0.2,1.2
	c0,0.5-0.3,1-0.7,1.2c-0.2,0.1-0.3,0.2-0.5,0.2c-0.1,0-0.2-0.1-0.3-0.2c0,0,0,0,0-0.1s0.1-0.1,0.2-0.2l0.3-0.1
	c0.1-0.1,0.2-0.2,0.3-0.3c0.1-0.2,0.1-0.3,0.1-0.5c0-0.3-0.1-0.5-0.1-0.7c-0.1-0.3-0.1-0.6-0.2-0.9c0-0.3,0.1-0.6,0.2-0.9
	c0.1-0.1,0.2-0.3,0.3-0.4h-1l-0.6-0.6h2.7l0.6,0.6C123.8,22.6,123.5,22.5,123.2,22.5z"/>
<path class="st4" d="M124,22.4c0-0.4-0.1-0.8-0.1-1.3l0.3,0.3c0,0.2,0.1,0.3,0.1,0.4l0.1,0.1h0.6l0.6,0.6h-1.2V27l-0.6-0.6v-3.1
	c0-0.1,0-0.3-0.1-0.4c-0.1-0.2-0.3-0.3-0.6-0.3H123l-0.6-0.6c0.3,0,0.6,0,0.8,0C123.6,22,123.8,22.2,124,22.4z"/>
<path class="st4" d="M126.7,24.2c-0.1,0.1-0.3,0.1-0.4,0.1c-0.3,0-0.6-0.1-0.7-0.3c-0.2-0.2-0.3-0.5-0.3-0.7c0-0.3,0.1-0.6,0.3-0.7
	c0.2-0.2,0.4-0.3,0.7-0.3c0.3,0,0.5,0.1,0.7,0.3c0.2,0.2,0.3,0.5,0.3,0.7s-0.1,0.4-0.2,0.5C126.9,23.9,126.8,24.1,126.7,24.2z
	 M127.3,26.7c-0.6-0.5-1.2-1-1.8-1.4v-1.1c0.3,0.2,0.6,0.6,1.1,1c0.5,0.5,0.9,1,1.4,1.6v0.6L127.3,26.7z M126.4,22.8
	c-0.2,0-0.3,0.1-0.4,0.2s-0.2,0.3-0.2,0.5c0,0.1,0.1,0.2,0.2,0.2s0.2-0.1,0.4-0.1c0.1-0.1,0.2-0.2,0.3-0.3c0-0.1,0-0.2,0-0.2
	C126.6,22.9,126.6,22.8,126.4,22.8z"/>
<path class="st4" d="M130.4,22.6v0.1c0.4,0,0.7,0.2,1,0.4c0.3,0.2,0.5,0.6,0.5,0.9c0,0.1,0,0.2,0,0.4c0,0.2-0.1,0.4-0.2,0.6
	c-0.1,0.2-0.3,0.3-0.6,0.3c-0.2,0-0.3-0.1-0.4-0.2c-0.1-0.1-0.2-0.3-0.2-0.4c0-0.2,0.1-0.4,0.3-0.5c0.1,0,0.2,0,0.3,0
	c0.2,0,0.3,0.1,0.5,0.2c0,0,0,0,0,0.1s-0.1,0.1-0.2,0.1c0,0,0-0.1,0.1-0.1c0-0.2-0.1-0.5-0.3-0.6c-0.2-0.2-0.5-0.3-0.7-0.3V27
	l-0.3-0.3c-0.1-0.2-0.1-0.3-0.2-0.5c-0.1-0.2-0.2-0.3-0.3-0.4c-0.1-0.2-0.3-0.3-0.5-0.4c-0.3-0.2-0.7-0.3-1-0.4l-0.6-0.8
	c0.7-0.6,1.5-1,2.3-1.3v-0.2h-2.5l-0.6-0.6h5.4l0.6,0.6h-2.4V22.6z M129.1,23.9l-0.4,0.3c0.5,0.2,0.9,0.6,1.2,1.1v-1.7
	C129.6,23.6,129.3,23.7,129.1,23.9z"/>
</svg>
